<svg width="81" height="20" viewBox="0 0 81 20" fill="none" xmlns="http://www.w3.org/2000/svg">
<path d="M3.20801 8.42383V16H1.08984V6.49023H3.08496L3.20801 8.42383ZM2.86523 10.8936L2.14453 10.8848C2.14453 10.2285 2.22656 9.62207 2.39062 9.06543C2.55469 8.50879 2.79492 8.02539 3.11133 7.61523C3.42773 7.19922 3.82031 6.87988 4.28906 6.65723C4.76367 6.42871 5.31152 6.31445 5.93262 6.31445C6.36621 6.31445 6.76172 6.37891 7.11914 6.50781C7.48242 6.63086 7.7959 6.82715 8.05957 7.09668C8.3291 7.36621 8.53418 7.71191 8.6748 8.13379C8.82129 8.55566 8.89453 9.06543 8.89453 9.66309V16H6.77637V9.84766C6.77637 9.38477 6.70605 9.02148 6.56543 8.75781C6.43066 8.49414 6.23438 8.30664 5.97656 8.19531C5.72461 8.07812 5.42285 8.01953 5.07129 8.01953C4.67285 8.01953 4.33301 8.0957 4.05176 8.24805C3.77637 8.40039 3.55078 8.6084 3.375 8.87207C3.19922 9.13574 3.07031 9.44043 2.98828 9.78613C2.90625 10.1318 2.86523 10.501 2.86523 10.8936ZM8.7627 10.3311L7.76953 10.5508C7.76953 9.97656 7.84863 9.43457 8.00684 8.9248C8.1709 8.40918 8.4082 7.95801 8.71875 7.57129C9.03516 7.17871 9.4248 6.87109 9.8877 6.64844C10.3506 6.42578 10.8809 6.31445 11.4785 6.31445C11.9648 6.31445 12.3984 6.38184 12.7793 6.5166C13.166 6.64551 13.4941 6.85059 13.7637 7.13184C14.0332 7.41309 14.2383 7.7793 14.3789 8.23047C14.5195 8.67578 14.5898 9.21484 14.5898 9.84766V16H12.4629V9.83887C12.4629 9.3584 12.3926 8.98633 12.252 8.72266C12.1172 8.45898 11.9238 8.27734 11.6719 8.17773C11.4199 8.07227 11.1182 8.01953 10.7666 8.01953C10.4385 8.01953 10.1484 8.08105 9.89648 8.2041C9.65039 8.32129 9.44238 8.48828 9.27246 8.70508C9.10254 8.91602 8.97363 9.15918 8.88574 9.43457C8.80371 9.70996 8.7627 10.0088 8.7627 10.3311ZM22.1309 14.0928V9.55762C22.1309 9.21777 22.0693 8.9248 21.9463 8.67871C21.8232 8.43262 21.6357 8.24219 21.3838 8.10742C21.1377 7.97266 20.8271 7.90527 20.4521 7.90527C20.1064 7.90527 19.8076 7.96387 19.5557 8.08105C19.3037 8.19824 19.1074 8.35645 18.9668 8.55566C18.8262 8.75488 18.7559 8.98047 18.7559 9.23242H16.6465C16.6465 8.85742 16.7373 8.49414 16.9189 8.14258C17.1006 7.79102 17.3643 7.47754 17.71 7.20215C18.0557 6.92676 18.4688 6.70996 18.9492 6.55176C19.4297 6.39355 19.9688 6.31445 20.5664 6.31445C21.2812 6.31445 21.9141 6.43457 22.4648 6.6748C23.0215 6.91504 23.458 7.27832 23.7744 7.76465C24.0967 8.24512 24.2578 8.84863 24.2578 9.5752V13.8027C24.2578 14.2363 24.2871 14.626 24.3457 14.9717C24.4102 15.3115 24.501 15.6074 24.6182 15.8594V16H22.4473C22.3477 15.7715 22.2686 15.4814 22.21 15.1299C22.1572 14.7725 22.1309 14.4268 22.1309 14.0928ZM22.4385 10.2168L22.4561 11.5264H20.9355C20.543 11.5264 20.1973 11.5645 19.8984 11.6406C19.5996 11.7109 19.3506 11.8164 19.1514 11.957C18.9521 12.0977 18.8027 12.2676 18.7031 12.4668C18.6035 12.666 18.5537 12.8916 18.5537 13.1436C18.5537 13.3955 18.6123 13.627 18.7295 13.8379C18.8467 14.043 19.0166 14.2041 19.2393 14.3213C19.4678 14.4385 19.7432 14.4971 20.0654 14.4971C20.499 14.4971 20.877 14.4092 21.1992 14.2334C21.5273 14.0518 21.7852 13.832 21.9727 13.5742C22.1602 13.3105 22.2598 13.0615 22.2715 12.8271L22.957 13.7676C22.8867 14.0078 22.7666 14.2656 22.5967 14.541C22.4268 14.8164 22.2041 15.0801 21.9287 15.332C21.6592 15.5781 21.334 15.7803 20.9531 15.9385C20.5781 16.0967 20.1445 16.1758 19.6523 16.1758C19.0312 16.1758 18.4775 16.0527 17.9912 15.8066C17.5049 15.5547 17.124 15.2178 16.8486 14.7959C16.5732 14.3682 16.4355 13.8848 16.4355 13.3457C16.4355 12.8418 16.5293 12.3965 16.7168 12.0098C16.9102 11.6172 17.1914 11.2891 17.5605 11.0254C17.9355 10.7617 18.3926 10.5625 18.9316 10.4277C19.4707 10.2871 20.0859 10.2168 20.7773 10.2168H22.4385ZM32.5635 6.49023H34.4883V15.7363C34.4883 16.5918 34.3066 17.3184 33.9434 17.916C33.5801 18.5137 33.0732 18.9678 32.4229 19.2783C31.7725 19.5947 31.0195 19.7529 30.1641 19.7529C29.8008 19.7529 29.3965 19.7002 28.9512 19.5947C28.5117 19.4893 28.084 19.3193 27.668 19.085C27.2578 18.8564 26.915 18.5547 26.6396 18.1797L27.6328 16.9316C27.9727 17.3359 28.3477 17.6318 28.7578 17.8193C29.168 18.0068 29.5986 18.1006 30.0498 18.1006C30.5361 18.1006 30.9492 18.0098 31.2891 17.8281C31.6348 17.6523 31.9014 17.3916 32.0889 17.0459C32.2764 16.7002 32.3701 16.2783 32.3701 15.7803V8.64355L32.5635 6.49023ZM26.1035 11.3506V11.166C26.1035 10.4453 26.1914 9.78906 26.3672 9.19727C26.543 8.59961 26.7949 8.08691 27.123 7.65918C27.4512 7.22559 27.8496 6.89453 28.3184 6.66602C28.7871 6.43164 29.3174 6.31445 29.9092 6.31445C30.5244 6.31445 31.0488 6.42578 31.4824 6.64844C31.9219 6.87109 32.2881 7.19043 32.5811 7.60645C32.874 8.0166 33.1025 8.50879 33.2666 9.08301C33.4365 9.65137 33.5625 10.2842 33.6445 10.9814V11.5703C33.5684 12.25 33.4395 12.8711 33.2578 13.4336C33.0762 13.9961 32.8359 14.4824 32.5371 14.8926C32.2383 15.3027 31.8691 15.6191 31.4297 15.8418C30.9961 16.0645 30.4834 16.1758 29.8916 16.1758C29.3115 16.1758 28.7871 16.0557 28.3184 15.8154C27.8555 15.5752 27.457 15.2383 27.123 14.8047C26.7949 14.3711 26.543 13.8613 26.3672 13.2754C26.1914 12.6836 26.1035 12.042 26.1035 11.3506ZM28.2217 11.166V11.3506C28.2217 11.7842 28.2627 12.1885 28.3447 12.5635C28.4326 12.9385 28.5645 13.2695 28.7402 13.5566C28.9219 13.8379 29.1504 14.0605 29.4258 14.2246C29.707 14.3828 30.0381 14.4619 30.4189 14.4619C30.917 14.4619 31.3242 14.3564 31.6406 14.1455C31.9629 13.9346 32.209 13.6504 32.3789 13.293C32.5547 12.9297 32.6777 12.5254 32.748 12.0801V10.4893C32.7129 10.1436 32.6396 9.82129 32.5283 9.52246C32.4229 9.22363 32.2793 8.96289 32.0977 8.74023C31.916 8.51172 31.6875 8.33594 31.4121 8.21289C31.1367 8.08398 30.8115 8.01953 30.4365 8.01953C30.0557 8.01953 29.7246 8.10156 29.4434 8.26562C29.1621 8.42969 28.9307 8.65527 28.749 8.94238C28.5732 9.22949 28.4414 9.56348 28.3535 9.94434C28.2656 10.3252 28.2217 10.7324 28.2217 11.166ZM38.7861 8.52051V16H36.668V6.49023H38.6631L38.7861 8.52051ZM38.4082 10.8936L37.7227 10.8848C37.7285 10.2109 37.8223 9.59277 38.0039 9.03027C38.1914 8.46777 38.4492 7.98438 38.7773 7.58008C39.1113 7.17578 39.5098 6.86523 39.9727 6.64844C40.4355 6.42578 40.9512 6.31445 41.5195 6.31445C41.9766 6.31445 42.3896 6.37891 42.7588 6.50781C43.1338 6.63086 43.4531 6.83301 43.7168 7.11426C43.9863 7.39551 44.1914 7.76172 44.332 8.21289C44.4727 8.6582 44.543 9.20605 44.543 9.85645V16H42.416V9.84766C42.416 9.39062 42.3486 9.03027 42.2139 8.7666C42.085 8.49707 41.8945 8.30664 41.6426 8.19531C41.3965 8.07812 41.0889 8.01953 40.7197 8.01953C40.3564 8.01953 40.0312 8.0957 39.7441 8.24805C39.457 8.40039 39.2139 8.6084 39.0146 8.87207C38.8213 9.13574 38.6719 9.44043 38.5664 9.78613C38.4609 10.1318 38.4082 10.501 38.4082 10.8936ZM48.9727 6.49023V16H46.8457V6.49023H48.9727ZM46.7051 3.99414C46.7051 3.67187 46.8105 3.40527 47.0215 3.19434C47.2383 2.97754 47.5371 2.86914 47.918 2.86914C48.293 2.86914 48.5889 2.97754 48.8057 3.19434C49.0225 3.40527 49.1309 3.67187 49.1309 3.99414C49.1309 4.31055 49.0225 4.57422 48.8057 4.78516C48.5889 4.99609 48.293 5.10156 47.918 5.10156C47.5371 5.10156 47.2383 4.99609 47.0215 4.78516C46.8105 4.57422 46.7051 4.31055 46.7051 3.99414ZM54.0176 16H51.8906V5.875C51.8906 5.10742 52.043 4.45996 52.3477 3.93262C52.6582 3.40527 53.1006 3.00391 53.6748 2.72852C54.2549 2.45313 54.9434 2.31543 55.7402 2.31543C56.209 2.31543 56.6602 2.36523 57.0938 2.46484C57.5332 2.56445 57.9873 2.69043 58.4561 2.84277L58.1309 4.56543C57.832 4.46582 57.501 4.37207 57.1377 4.28418C56.7744 4.19043 56.3555 4.14355 55.8809 4.14355C55.2422 4.14355 54.7705 4.29004 54.4658 4.58301C54.167 4.87012 54.0176 5.30078 54.0176 5.875V16ZM55.9248 6.49023V8.03711H50.4316V6.49023H55.9248ZM59.458 6.49023V16H57.3398V6.49023H59.458ZM65.707 14.4883C66.0527 14.4883 66.3633 14.4209 66.6387 14.2861C66.9199 14.1455 67.1455 13.9521 67.3154 13.7061C67.4912 13.46 67.5879 13.1758 67.6055 12.8535H69.6006C69.5889 13.4688 69.4072 14.0283 69.0557 14.5322C68.7041 15.0361 68.2383 15.4375 67.6582 15.7363C67.0781 16.0293 66.4365 16.1758 65.7334 16.1758C65.0068 16.1758 64.374 16.0527 63.835 15.8066C63.2959 15.5547 62.8477 15.209 62.4902 14.7695C62.1328 14.3301 61.8633 13.8232 61.6816 13.249C61.5059 12.6748 61.418 12.0596 61.418 11.4033V11.0957C61.418 10.4395 61.5059 9.82422 61.6816 9.25C61.8633 8.66992 62.1328 8.16016 62.4902 7.7207C62.8477 7.28125 63.2959 6.93848 63.835 6.69238C64.374 6.44043 65.0039 6.31445 65.7246 6.31445C66.4863 6.31445 67.1543 6.4668 67.7285 6.77148C68.3027 7.07031 68.7539 7.48926 69.082 8.02832C69.416 8.56152 69.5889 9.18262 69.6006 9.8916H67.6055C67.5879 9.54004 67.5 9.22363 67.3418 8.94238C67.1895 8.65527 66.9727 8.42676 66.6914 8.25684C66.416 8.08691 66.085 8.00195 65.6982 8.00195C65.2705 8.00195 64.916 8.08984 64.6348 8.26562C64.3535 8.43555 64.1338 8.66992 63.9756 8.96875C63.8174 9.26172 63.7031 9.59277 63.6328 9.96191C63.5684 10.3252 63.5361 10.7031 63.5361 11.0957V11.4033C63.5361 11.7959 63.5684 12.1768 63.6328 12.5459C63.6973 12.915 63.8086 13.2461 63.9668 13.5391C64.1309 13.8262 64.3535 14.0576 64.6348 14.2334C64.916 14.4033 65.2734 14.4883 65.707 14.4883ZM70.8223 11.3506V11.1484C70.8223 10.4629 70.9219 9.82715 71.1211 9.24121C71.3203 8.64941 71.6074 8.13672 71.9824 7.70312C72.3633 7.26367 72.8262 6.92383 73.3711 6.68359C73.9219 6.4375 74.543 6.31445 75.2344 6.31445C75.9316 6.31445 76.5527 6.4375 77.0977 6.68359C77.6484 6.92383 78.1143 7.26367 78.4951 7.70312C78.876 8.13672 79.166 8.64941 79.3652 9.24121C79.5645 9.82715 79.6641 10.4629 79.6641 11.1484V11.3506C79.6641 12.0361 79.5645 12.6719 79.3652 13.2578C79.166 13.8438 78.876 14.3564 78.4951 14.7959C78.1143 15.2295 77.6514 15.5693 77.1064 15.8154C76.5615 16.0557 75.9434 16.1758 75.252 16.1758C74.5547 16.1758 73.9307 16.0557 73.3799 15.8154C72.835 15.5693 72.3721 15.2295 71.9912 14.7959C71.6104 14.3564 71.3203 13.8438 71.1211 13.2578C70.9219 12.6719 70.8223 12.0361 70.8223 11.3506ZM72.9404 11.1484V11.3506C72.9404 11.7783 72.9844 12.1826 73.0723 12.5635C73.1602 12.9443 73.2979 13.2783 73.4854 13.5654C73.6729 13.8525 73.9131 14.0781 74.2061 14.2422C74.499 14.4062 74.8477 14.4883 75.252 14.4883C75.6445 14.4883 75.9844 14.4062 76.2715 14.2422C76.5645 14.0781 76.8047 13.8525 76.9922 13.5654C77.1797 13.2783 77.3174 12.9443 77.4053 12.5635C77.499 12.1826 77.5459 11.7783 77.5459 11.3506V11.1484C77.5459 10.7266 77.499 10.3281 77.4053 9.95312C77.3174 9.57227 77.1768 9.23535 76.9834 8.94238C76.7959 8.64941 76.5557 8.4209 76.2627 8.25684C75.9756 8.08691 75.6328 8.00195 75.2344 8.00195C74.8359 8.00195 74.4902 8.08691 74.1973 8.25684C73.9102 8.4209 73.6729 8.64941 73.4854 8.94238C73.2979 9.23535 73.1602 9.57227 73.0723 9.95312C72.9844 10.3281 72.9404 10.7266 72.9404 11.1484Z" fill="#0F172A"/>
</svg>
