<svg width="25" height="24" viewBox="0 0 25 24" fill="none" xmlns="http://www.w3.org/2000/svg">
<path d="M17.0449 19.8633L0.98548 8.78553C-0.64195 7.66298 -0.0887313 5.32566 1.94063 4.77602L19.009 0.14348C19.3705 0.0130174 19.758 -0.0293334 20.1392 0.0199461C20.5204 0.0692256 20.8844 0.208712 21.2009 0.426831C21.5173 0.644949 21.7773 0.935407 21.959 1.2741C22.1407 1.61279 22.2391 1.98994 22.2459 2.37426L21.2344 18.0837C21.1144 19.9484 18.6724 20.9859 17.0449 19.8633Z" fill="#94A3B8"/>
<path d="M11.9513 22.5978L2.49013 4.0954C2.27385 3.67212 2.17868 3.19733 2.21511 2.7234C2.25153 2.24946 2.41814 1.79479 2.69655 1.40954C2.97497 1.02428 3.35437 0.723394 3.79293 0.540062C4.23149 0.35673 4.71215 0.298078 5.18192 0.370578L22.7158 3.07669C23.1194 3.139 23.5025 3.29624 23.8337 3.53547C24.1647 3.77472 24.4342 4.08912 24.6202 4.45284C24.806 4.81656 24.9029 5.2192 24.9029 5.62767C24.9028 6.03613 24.8057 6.43876 24.6198 6.80241L16.5426 22.5987C16.3257 23.0207 15.9967 23.3749 15.5916 23.622C15.1865 23.8693 14.7212 24 14.2467 23.9999C13.7721 23.9998 13.3068 23.8689 12.9019 23.6216C12.4969 23.3742 12.168 23.0199 11.9513 22.5978Z" fill="#94A3B8"/>
<path d="M17.7183 6.5452L14.3517 6L10.2183 7.17758L11.8681 10.5642L15.7315 13.3614C15.8168 13.4225 15.9105 13.4692 16.0095 13.5L17.4769 10.4889L17.7183 6.5452Z" fill="white"/>
</svg>
