<svg width="142" height="32" viewBox="0 0 142 32" fill="none" xmlns="http://www.w3.org/2000/svg">
<path d="M5.25 11.0938V24.5H0.734375V7.59375H4.96875L5.25 11.0938ZM4.625 15.4531H3.375C3.375 14.276 3.51562 13.1927 3.79688 12.2031C4.08854 11.2031 4.51042 10.3385 5.0625 9.60938C5.625 8.86979 6.31771 8.29688 7.14062 7.89062C7.96354 7.48438 8.91667 7.28125 10 7.28125C10.75 7.28125 11.4375 7.39583 12.0625 7.625C12.6875 7.84375 13.224 8.19271 13.6719 8.67188C14.1302 9.14062 14.4844 9.75521 14.7344 10.5156C14.9844 11.2656 15.1094 12.1667 15.1094 13.2188V24.5H10.6094V13.7188C10.6094 12.9479 10.5052 12.3542 10.2969 11.9375C10.0885 11.5208 9.79167 11.2292 9.40625 11.0625C9.03125 10.8958 8.57812 10.8125 8.04688 10.8125C7.46354 10.8125 6.95312 10.9323 6.51562 11.1719C6.08854 11.4115 5.73438 11.7448 5.45312 12.1719C5.17188 12.5885 4.96354 13.0781 4.82812 13.6406C4.69271 14.2031 4.625 14.8073 4.625 15.4531ZM14.6875 14.9375L13.0781 15.1406C13.0781 14.0365 13.2135 13.0104 13.4844 12.0625C13.7656 11.1146 14.1771 10.2812 14.7188 9.5625C15.2708 8.84375 15.9531 8.28646 16.7656 7.89062C17.5781 7.48438 18.5156 7.28125 19.5781 7.28125C20.3906 7.28125 21.1302 7.40104 21.7969 7.64062C22.4635 7.86979 23.0312 8.23958 23.5 8.75C23.9792 9.25 24.3438 9.90625 24.5938 10.7188C24.8542 11.5312 24.9844 12.526 24.9844 13.7031V24.5H20.4688V13.7031C20.4688 12.9219 20.3646 12.3281 20.1562 11.9219C19.9583 11.5052 19.6667 11.2188 19.2812 11.0625C18.9062 10.8958 18.4583 10.8125 17.9375 10.8125C17.3958 10.8125 16.9219 10.9219 16.5156 11.1406C16.1094 11.349 15.7708 11.6406 15.5 12.0156C15.2292 12.3906 15.026 12.8281 14.8906 13.3281C14.7552 13.8177 14.6875 14.3542 14.6875 14.9375ZM37.5938 20.6875V13.1562C37.5938 12.6146 37.5052 12.151 37.3281 11.7656C37.151 11.3698 36.875 11.0625 36.5 10.8438C36.1354 10.625 35.6615 10.5156 35.0781 10.5156C34.5781 10.5156 34.1458 10.6042 33.7812 10.7812C33.4167 10.9479 33.1354 11.1927 32.9375 11.5156C32.7396 11.8281 32.6406 12.1979 32.6406 12.625H28.1406C28.1406 11.9062 28.3073 11.224 28.6406 10.5781C28.974 9.93229 29.4583 9.36458 30.0938 8.875C30.7292 8.375 31.4844 7.98438 32.3594 7.70312C33.2448 7.42188 34.2344 7.28125 35.3281 7.28125C36.6406 7.28125 37.8073 7.5 38.8281 7.9375C39.849 8.375 40.651 9.03125 41.2344 9.90625C41.8281 10.7812 42.125 11.875 42.125 13.1875V20.4219C42.125 21.349 42.1823 22.1094 42.2969 22.7031C42.4115 23.2865 42.5781 23.7969 42.7969 24.2344V24.5H38.25C38.0312 24.0417 37.8646 23.4688 37.75 22.7812C37.6458 22.0833 37.5938 21.3854 37.5938 20.6875ZM38.1875 14.2031L38.2188 16.75H35.7031C35.1094 16.75 34.5938 16.8177 34.1562 16.9531C33.7188 17.0885 33.3594 17.2812 33.0781 17.5312C32.7969 17.7708 32.5885 18.0521 32.4531 18.375C32.3281 18.6979 32.2656 19.0521 32.2656 19.4375C32.2656 19.8229 32.3542 20.1719 32.5312 20.4844C32.7083 20.7865 32.9635 21.026 33.2969 21.2031C33.6302 21.3698 34.0208 21.4531 34.4688 21.4531C35.1458 21.4531 35.7344 21.3177 36.2344 21.0469C36.7344 20.776 37.1198 20.4427 37.3906 20.0469C37.6719 19.651 37.8177 19.276 37.8281 18.9219L39.0156 20.8281C38.849 21.2552 38.6198 21.6979 38.3281 22.1562C38.0469 22.6146 37.6875 23.0469 37.25 23.4531C36.8125 23.849 36.2865 24.1771 35.6719 24.4375C35.0573 24.6875 34.3281 24.8125 33.4844 24.8125C32.4115 24.8125 31.4375 24.599 30.5625 24.1719C29.6979 23.7344 29.0104 23.1354 28.5 22.375C28 21.6042 27.75 20.7292 27.75 19.75C27.75 18.8646 27.9167 18.0781 28.25 17.3906C28.5833 16.7031 29.0729 16.125 29.7188 15.6562C30.375 15.1771 31.1927 14.8177 32.1719 14.5781C33.151 14.3281 34.2865 14.2031 35.5781 14.2031H38.1875ZM56.2969 7.59375H60.375V23.9375C60.375 25.4792 60.0312 26.7865 59.3438 27.8594C58.6667 28.9427 57.7188 29.7604 56.5 30.3125C55.2812 30.875 53.8646 31.1562 52.25 31.1562C51.5417 31.1562 50.7917 31.0625 50 30.875C49.2188 30.6875 48.4688 30.3958 47.75 30C47.0417 29.6042 46.4479 29.1042 45.9688 28.5L47.9531 25.8438C48.474 26.4479 49.0781 26.9167 49.7656 27.25C50.4531 27.5938 51.2135 27.7656 52.0469 27.7656C52.8594 27.7656 53.5469 27.6146 54.1094 27.3125C54.6719 27.0208 55.1042 26.5885 55.4062 26.0156C55.7083 25.4531 55.8594 24.7708 55.8594 23.9688V11.5L56.2969 7.59375ZM44.9219 16.25V15.9219C44.9219 14.6302 45.0781 13.4583 45.3906 12.4062C45.7135 11.3438 46.1667 10.4323 46.75 9.67188C47.3438 8.91146 48.0625 8.32292 48.9062 7.90625C49.75 7.48958 50.7031 7.28125 51.7656 7.28125C52.8906 7.28125 53.8333 7.48958 54.5938 7.90625C55.3542 8.32292 55.9792 8.91667 56.4688 9.6875C56.9583 10.4479 57.3385 11.349 57.6094 12.3906C57.8906 13.4219 58.1094 14.5521 58.2656 15.7812V16.5C58.1094 17.6771 57.875 18.7708 57.5625 19.7812C57.25 20.7917 56.8385 21.6771 56.3281 22.4375C55.8177 23.1875 55.1823 23.7708 54.4219 24.1875C53.6719 24.6042 52.776 24.8125 51.7344 24.8125C50.6927 24.8125 49.75 24.599 48.9062 24.1719C48.0729 23.7448 47.3594 23.1458 46.7656 22.375C46.1719 21.6042 45.7135 20.6979 45.3906 19.6562C45.0781 18.6146 44.9219 17.4792 44.9219 16.25ZM49.4219 15.9219V16.25C49.4219 16.9479 49.4896 17.599 49.625 18.2031C49.7604 18.8073 49.9688 19.3438 50.25 19.8125C50.5417 20.2708 50.901 20.6302 51.3281 20.8906C51.7656 21.1406 52.2812 21.2656 52.875 21.2656C53.6979 21.2656 54.3698 21.0938 54.8906 20.75C55.4115 20.3958 55.8021 19.9115 56.0625 19.2969C56.3229 18.6823 56.474 17.974 56.5156 17.1719V15.125C56.4948 14.4688 56.4062 13.8802 56.25 13.3594C56.0938 12.8281 55.875 12.375 55.5938 12C55.3125 11.625 54.9479 11.3333 54.5 11.125C54.0521 10.9167 53.5208 10.8125 52.9062 10.8125C52.3125 10.8125 51.7969 10.9479 51.3594 11.2188C50.9323 11.4792 50.5729 11.8385 50.2812 12.2969C50 12.7552 49.7865 13.2969 49.6406 13.9219C49.4948 14.5365 49.4219 15.2031 49.4219 15.9219ZM68.2812 11.2031V24.5H63.7812V7.59375H68L68.2812 11.2031ZM67.625 15.4531H66.4062C66.4062 14.2031 66.5677 13.0781 66.8906 12.0781C67.2135 11.0677 67.6667 10.2083 68.25 9.5C68.8333 8.78125 69.526 8.23438 70.3281 7.85938C71.1406 7.47396 72.0469 7.28125 73.0469 7.28125C73.8385 7.28125 74.5625 7.39583 75.2188 7.625C75.875 7.85417 76.4375 8.21875 76.9062 8.71875C77.3854 9.21875 77.75 9.88021 78 10.7031C78.2604 11.526 78.3906 12.5312 78.3906 13.7188V24.5H73.8594V13.7031C73.8594 12.9531 73.7552 12.3698 73.5469 11.9531C73.3385 11.5365 73.0312 11.2448 72.625 11.0781C72.2292 10.901 71.7396 10.8125 71.1562 10.8125C70.5521 10.8125 70.026 10.9323 69.5781 11.1719C69.1406 11.4115 68.776 11.7448 68.4844 12.1719C68.2031 12.5885 67.9896 13.0781 67.8438 13.6406C67.6979 14.2031 67.625 14.8073 67.625 15.4531ZM86.5625 7.59375V24.5H82.0469V7.59375H86.5625ZM81.7656 3.1875C81.7656 2.53125 81.9948 1.98958 82.4531 1.5625C82.9115 1.13542 83.526 0.921875 84.2969 0.921875C85.0573 0.921875 85.6667 1.13542 86.125 1.5625C86.5938 1.98958 86.8281 2.53125 86.8281 3.1875C86.8281 3.84375 86.5938 4.38542 86.125 4.8125C85.6667 5.23958 85.0573 5.45312 84.2969 5.45312C83.526 5.45312 82.9115 5.23958 82.4531 4.8125C81.9948 4.38542 81.7656 3.84375 81.7656 3.1875ZM95.9062 24.5H91.3906V6.82812C91.3906 5.39062 91.6823 4.17708 92.2656 3.1875C92.8594 2.19792 93.7031 1.44792 94.7969 0.9375C95.901 0.427083 97.2344 0.171875 98.7969 0.171875C99.6823 0.171875 100.542 0.260417 101.375 0.4375C102.208 0.604167 103.068 0.822917 103.953 1.09375L103.297 4.70312C102.724 4.52604 102.109 4.35938 101.453 4.20312C100.797 4.04688 100.005 3.96875 99.0781 3.96875C98.0365 3.96875 97.2448 4.21354 96.7031 4.70312C96.1719 5.18229 95.9062 5.89062 95.9062 6.82812V24.5ZM99.2656 7.59375V10.7812H88.875V7.59375H99.2656ZM106.047 7.59375V24.5H101.531V7.59375H106.047ZM116.797 21.2969C117.349 21.2969 117.839 21.1927 118.266 20.9844C118.693 20.7656 119.026 20.4635 119.266 20.0781C119.516 19.6823 119.646 19.2188 119.656 18.6875H123.891C123.88 19.875 123.562 20.9323 122.938 21.8594C122.312 22.776 121.474 23.5 120.422 24.0312C119.37 24.5521 118.193 24.8125 116.891 24.8125C115.578 24.8125 114.432 24.5938 113.453 24.1562C112.484 23.7188 111.677 23.1146 111.031 22.3438C110.385 21.5625 109.901 20.6562 109.578 19.625C109.255 18.5833 109.094 17.4688 109.094 16.2812V15.8281C109.094 14.6302 109.255 13.5156 109.578 12.4844C109.901 11.4427 110.385 10.5365 111.031 9.76562C111.677 8.98438 112.484 8.375 113.453 7.9375C114.422 7.5 115.557 7.28125 116.859 7.28125C118.245 7.28125 119.458 7.54688 120.5 8.07812C121.552 8.60938 122.375 9.36979 122.969 10.3594C123.573 11.3385 123.88 12.5 123.891 13.8438H119.656C119.646 13.2812 119.526 12.7708 119.297 12.3125C119.078 11.8542 118.755 11.4896 118.328 11.2188C117.911 10.9375 117.396 10.7969 116.781 10.7969C116.125 10.7969 115.589 10.9375 115.172 11.2188C114.755 11.4896 114.432 11.8646 114.203 12.3438C113.974 12.8125 113.812 13.349 113.719 13.9531C113.635 14.5469 113.594 15.1719 113.594 15.8281V16.2812C113.594 16.9375 113.635 17.5677 113.719 18.1719C113.802 18.776 113.958 19.3125 114.188 19.7812C114.427 20.25 114.755 20.6198 115.172 20.8906C115.589 21.1615 116.13 21.2969 116.797 21.2969ZM125.781 16.2188V15.8906C125.781 14.651 125.958 13.5104 126.312 12.4688C126.667 11.4167 127.182 10.5052 127.859 9.73438C128.536 8.96354 129.37 8.36458 130.359 7.9375C131.349 7.5 132.484 7.28125 133.766 7.28125C135.047 7.28125 136.188 7.5 137.188 7.9375C138.188 8.36458 139.026 8.96354 139.703 9.73438C140.391 10.5052 140.911 11.4167 141.266 12.4688C141.62 13.5104 141.797 14.651 141.797 15.8906V16.2188C141.797 17.4479 141.62 18.5885 141.266 19.6406C140.911 20.6823 140.391 21.5938 139.703 22.375C139.026 23.1458 138.193 23.7448 137.203 24.1719C136.214 24.599 135.078 24.8125 133.797 24.8125C132.516 24.8125 131.375 24.599 130.375 24.1719C129.385 23.7448 128.547 23.1458 127.859 22.375C127.182 21.5938 126.667 20.6823 126.312 19.6406C125.958 18.5885 125.781 17.4479 125.781 16.2188ZM130.281 15.8906V16.2188C130.281 16.9271 130.344 17.5885 130.469 18.2031C130.594 18.8177 130.792 19.3594 131.062 19.8281C131.344 20.2865 131.708 20.6458 132.156 20.9062C132.604 21.1667 133.151 21.2969 133.797 21.2969C134.422 21.2969 134.958 21.1667 135.406 20.9062C135.854 20.6458 136.214 20.2865 136.484 19.8281C136.755 19.3594 136.953 18.8177 137.078 18.2031C137.214 17.5885 137.281 16.9271 137.281 16.2188V15.8906C137.281 15.2031 137.214 14.5573 137.078 13.9531C136.953 13.3385 136.75 12.7969 136.469 12.3281C136.198 11.849 135.839 11.474 135.391 11.2031C134.943 10.9323 134.401 10.7969 133.766 10.7969C133.13 10.7969 132.589 10.9323 132.141 11.2031C131.703 11.474 131.344 11.849 131.062 12.3281C130.792 12.7969 130.594 13.3385 130.469 13.9531C130.344 14.5573 130.281 15.2031 130.281 15.8906Z" fill="#0F172A"/>
</svg>
